<?xml version="1.0" ?><!DOCTYPE svg  PUBLIC '-//W3C//DTD SVG 1.0//EN'  'http://www.w3.org/TR/2001/REC-SVG-20010904/DTD/svg10.dtd'><svg enable-background="new 0 0 512 512" id="Layer_1" version="1.0" viewBox="0 0 512 512" xml:space="preserve" xmlns="http://www.w3.org/2000/svg" xmlns:xlink="http://www.w3.org/1999/xlink"><g><g><g><path d="M81,227v122.5h122.8v-22.3c0-7,5.7-12.7,12.7-12.7h79.4c7,0,12.7,5.7,12.7,12.7v22.3H431V227H81z      M151,295.3h-17.5c-8.8,0-15.8-7.1-15.8-15.8s7.1-15.8,15.8-15.8H151c8.8,0,15.8,7.1,15.8,15.8S159.7,295.3,151,295.3z      M378.5,295.3H361c-8.8,0-15.9-7.1-15.9-15.8s7.1-15.8,15.9-15.8h17.5c8.8,0,15.8,7.1,15.8,15.8S387.3,295.3,378.5,295.3z" fill="#EC2127"/><g><path d="M378.5,287.8c-5.8,0-11.6,0-17.4,0c-10.9,0-10.8-16.2-0.1-16.7c5.8-0.2,11.6,0,17.4,0      C389.3,271.1,389.3,287.4,378.5,287.8c-9.6,0.4-9.7,15.4,0,15c20.7-0.9,30.9-25.4,16-40.3c-8.6-8.6-22.5-6.4-33.5-6.4      c-21.1,0-30.5,25.9-16,40.3c8.6,8.6,22.5,6.4,33.5,6.4C388.2,302.8,388.2,287.8,378.5,287.8z"/><path d="M151,287.8c-5.8,0-11.6,0-17.4,0c-10.9,0-10.8-16.2-0.1-16.7c5.8-0.2,11.6,0,17.4,0C161.8,271.1,161.8,287.4,151,287.8      c-9.6,0.4-9.7,15.4,0,15c20.7-0.9,30.9-25.4,16-40.3c-8.6-8.6-22.5-6.4-33.6-6.4c-21.1,0-30.5,25.9-16.1,40.3      c8.6,8.6,22.5,6.4,33.6,6.4C160.7,302.8,160.7,287.8,151,287.8z"/><path d="M73.5,227c0,40.8,0,81.7,0,122.5c0,4.1,3.4,7.5,7.5,7.5c40.9,0,81.9,0,122.8,0c4.1,0,7.5-3.4,7.5-7.5      c0-6.2,0-12.3,0-18.5c0-4.4,0.2-9,6-9c12,0,24,0,35.9,0c13.4,0,26.7,0,40.1,0c3.9,0,7.8,0.7,7.8,5.7c0,6.7,0,13.3,0,20      c0,0.6,0,1.2,0,1.8c0,4.1,3.4,7.5,7.5,7.5c40.8,0,81.7,0,122.5,0c4.1,0,7.5-3.4,7.5-7.5c0-40.8,0-81.7,0-122.5      c0-4.1-3.4-7.5-7.5-7.5c-37.8,0-75.6,0-113.3,0c-62,0-124.1,0-186.1,0c-16.9,0-33.8,0-50.6,0c-9.7,0-9.7,15,0,15      c37.8,0,75.6,0,113.3,0c62,0,124.1,0,186.1,0c16.9,0,33.8,0,50.6,0c-2.5-2.5-5-5-7.5-7.5c0,40.8,0,81.7,0,122.5      c2.5-2.5,5-5,7.5-7.5c-40.8,0-81.7,0-122.5,0c2.5,2.5,5,5,7.5,7.5c0-14.3,3.7-34.6-13-41.1c-4.2-1.7-8.7-1.4-13.1-1.4      c-6.4,0-12.8,0-19.2,0c-15.1,0-30.2,0-45.4,0c-3,0-5.9,0-8.9,0c-11.6,0-20.2,9.8-20.2,21c0,7.2,0,14.3,0,21.5      c2.5-2.5,5-5,7.5-7.5c-40.9,0-81.9,0-122.8,0c2.5,2.5,5,5,7.5,7.5c0-40.8,0-81.7,0-122.5C88.5,217.3,73.5,217.3,73.5,227z"/></g></g><g><path d="M431,69.5V122H81V69.5c0-19.3,15.7-35,35-35H396C415.3,34.5,431,50.1,431,69.5z" fill="#EC2127"/><g><path d="M423.5,69.5c0,17.5,0,35,0,52.5c2.5-2.5,5-5,7.5-7.5c-37.8,0-75.6,0-113.3,0c-62,0-124.1,0-186.1,0      c-16.9,0-33.8,0-50.6,0c2.5,2.5,5,5,7.5,7.5c0-12.2,0-24.3,0-36.5c0-5.2,0-10.4,0-15.6c0-9,4-16.7,10.9-22.4      c6.4-5.3,14.3-5.5,22.1-5.5c8.1,0,16.1,0,24.2,0c60.5,0,121.1,0,181.6,0c19.3,0,38.6,0,57.9,0c3.6,0,7.1,0,10.7,0      C411.1,42,423.2,54.3,423.5,69.5c0.2,9.7,15.2,9.7,15,0C438.1,46.3,419.5,27,396,27c-3.9,0-7.8,0-11.7,0c-23.8,0-47.6,0-71.4,0      c-58.9,0-117.9,0-176.8,0c-6.1,0-12.2,0-18.3,0c-14.4,0-27.9,5.9-36.4,17.8c-9,12.6-7.9,27-7.9,41.6c0,11.8,0,23.7,0,35.5      c0,4.1,3.4,7.5,7.5,7.5c37.8,0,75.6,0,113.3,0c62,0,124.1,0,186.1,0c16.9,0,33.8,0,50.6,0c4.1,0,7.5-3.4,7.5-7.5      c0-17.5,0-35,0-52.5C438.5,59.8,423.5,59.8,423.5,69.5z"/></g></g><g><rect fill="#736357" height="83" width="70" x="81" y="419.5"/><g><path d="M143.5,419.5c0,27.7,0,55.3,0,83c2.5-2.5,5-5,7.5-7.5c-23.3,0-46.7,0-70,0c2.5,2.5,5,5,7.5,7.5c0-27.7,0-55.3,0-83      c-2.5,2.5-5,5-7.5,7.5c23.3,0,46.7,0,70,0c9.7,0,9.7-15,0-15c-23.3,0-46.7,0-70,0c-4.1,0-7.5,3.4-7.5,7.5c0,27.7,0,55.3,0,83      c0,4.1,3.4,7.5,7.5,7.5c23.3,0,46.7,0,70,0c4.1,0,7.5-3.4,7.5-7.5c0-27.7,0-55.3,0-83C158.5,409.8,143.5,409.8,143.5,419.5z"/></g></g><g><rect fill="#736357" height="83" width="70" x="361" y="419.5"/><g><path d="M423.5,419.5c0,27.7,0,55.3,0,83c2.5-2.5,5-5,7.5-7.5c-23.3,0-46.7,0-70,0c2.5,2.5,5,5,7.5,7.5c0-27.7,0-55.3,0-83      c-2.5,2.5-5,5-7.5,7.5c23.3,0,46.7,0,70,0c9.7,0,9.7-15,0-15c-23.3,0-46.7,0-70,0c-4.1,0-7.5,3.4-7.5,7.5c0,27.7,0,55.3,0,83      c0,4.1,3.4,7.5,7.5,7.5c23.3,0,46.7,0,70,0c4.1,0,7.5-3.4,7.5-7.5c0-27.7,0-55.3,0-83C438.5,409.8,423.5,409.8,423.5,419.5z"/></g></g><g><g><path d="M396,41.9c9.7,0,9.7-15,0-15C386.3,26.9,386.3,41.9,396,41.9L396,41.9z"/></g></g><g><path d="M431,122v105h-96.1l53.1-39.8c7-5.3,8.4-15.2,3.1-22.2c-5.2-7-15.2-8.4-22.2-3.2l-70,52.5     c-4.1,3.1-6.3,7.9-6.3,12.7h-20.8V122H431z" fill="#6FCCDD"/><g><path d="M423.5,122c0,35,0,70,0,105c2.5-2.5,5-5,7.5-7.5c-32,0-64.1,0-96.1,0c1.3,4.7,2.5,9.3,3.8,14      c17.7-13.3,35.4-26.5,53.1-39.8c10.2-7.7,13.2-21.7,5.8-32.4c-7.2-10.5-22-13-32.4-5.9c-7.7,5.3-15,11.3-22.5,16.9      c-12,9-24,18-35.9,27c-10,7.5-20.9,13.8-21.6,27.8c2.5-2.5,5-5,7.5-7.5c-6.9,0-13.9,0-20.8,0c2.5,2.5,5,5,7.5,7.5      c0-35,0-70,0-105c-2.5,2.5-5,5-7.5,7.5c49.3,0,98.6,0,147.8,0c3.8,0,7.6,0,11.3,0c9.7,0,9.7-15,0-15c-49.3,0-98.6,0-147.8,0      c-3.8,0-7.6,0-11.3,0c-4.1,0-7.5,3.4-7.5,7.5c0,35,0,70,0,105c0,4.1,3.4,7.5,7.5,7.5c6.9,0,13.9,0,20.8,0c4.2,0,7.3-3.4,7.5-7.5      c0.2-5,2.9-6.4,6.6-9.1c4.7-3.6,9.5-7.1,14.2-10.7c12.6-9.4,25.2-18.9,37.8-28.3c5.8-4.4,17.8-17.2,25.4-10.6      c10.6,9.2-9.2,19.4-15.5,24.2c-12.5,9.4-24.9,18.7-37.4,28.1c-5.6,4.2-4.3,14,3.8,14c32,0,64.1,0,96.1,0c4.1,0,7.5-3.4,7.5-7.5      c0-35,0-70,0-105C438.5,112.3,423.5,112.3,423.5,122z"/></g></g><g><path d="M240.2,122v105h-80.3l53.1-39.8c7-5.3,8.4-15.2,3.2-22.2c-5.2-7-15.2-8.4-22.2-3.2l-70,52.5     c-4.1,3.1-6.3,7.9-6.3,12.7H81V122H240.2z" fill="#6FCCDD"/><g><path d="M232.7,122c0,35,0,70,0,105c2.5-2.5,5-5,7.5-7.5c-26.8,0-53.5,0-80.3,0c1.3,4.7,2.5,9.3,3.8,14      c17.7-13.3,35.4-26.5,53.1-39.8c10.2-7.7,13.2-21.7,5.9-32.4c-7.2-10.5-22-13-32.4-5.9c-7.7,5.3-15,11.3-22.5,16.9      c-12,9-24,18-35.9,27c-10,7.5-21,13.8-21.6,27.8c2.5-2.5,5-5,7.5-7.5c-12.2,0-24.4,0-36.7,0c2.5,2.5,5,5,7.5,7.5      c0-35,0-70,0-105c-2.5,2.5-5,5-7.5,7.5c49.3,0,98.6,0,147.8,0c3.8,0,7.6,0,11.3,0c9.7,0,9.7-15,0-15c-49.3,0-98.6,0-147.8,0      c-3.8,0-7.6,0-11.3,0c-4.1,0-7.5,3.4-7.5,7.5c0,35,0,70,0,105c0,4.1,3.4,7.5,7.5,7.5c12.2,0,24.4,0,36.7,0      c4.2,0,7.3-3.4,7.5-7.5c0.2-5,2.9-6.4,6.5-9.1c4.7-3.6,9.5-7.1,14.2-10.7c12.6-9.4,25.2-18.9,37.8-28.3      c5.8-4.4,17.8-17.2,25.4-10.6c10.6,9.2-9.2,19.4-15.5,24.2c-12.5,9.4-24.9,18.7-37.4,28.1c-5.6,4.2-4.3,14,3.8,14      c26.8,0,53.5,0,80.3,0c4.1,0,7.5-3.4,7.5-7.5c0-35,0-70,0-105C247.7,112.3,232.7,112.3,232.7,122z"/></g></g><g><path d="M213,187.1L159.9,227h-42.3c0-4.8,2.2-9.6,6.3-12.7l70-52.5c7-5.3,16.9-3.8,22.2,3.2     C221.4,172,220,181.9,213,187.1z" fill="#69BD45"/><g><path d="M209.2,180.7c-17.7,13.3-35.4,26.5-53.1,39.8c1.3-0.3,2.5-0.7,3.8-1c-14.1,0-28.2,0-42.3,0c2.5,2.5,5,5,7.5,7.5      c0.3-6.8,9.2-11.2,14.8-15.3c10.2-7.7,20.5-15.4,30.7-23.1c8.2-6.2,16.4-12.3,24.6-18.5c2.6-2,5-4,8.6-4      c3.4-0.1,6.4,2.5,7.6,5.6c1.5,4.1-0.6,7.6-3.7,10.1c-3.2,2.6-2.7,7.9,0,10.6c3.1,3.1,7.4,2.6,10.6,0c9.3-7.6,11.1-21.4,4.3-31.3      c-7.1-10.3-20.7-12.6-31.3-6.6c-7.8,4.4-15,11.2-22.2,16.6c-12.3,9.2-24.5,18.4-36.8,27.6c-10.1,7.6-21.6,14-22.2,28.3      c-0.2,4.1,3.6,7.5,7.5,7.5c9.9,0,19.9,0,29.8,0c4.1,0,8.2,0,12.3,0c3.3,0,5.5-2.2,8-4.1c16.3-12.3,32.7-24.5,49-36.8      c3.3-2.4,4.9-6.4,2.7-10.3C217.6,180.1,212.5,178.2,209.2,180.7z"/></g></g><g><path d="M388,187.1L334.9,227h-42.3c0-4.8,2.2-9.6,6.3-12.7l70-52.5c7-5.3,16.9-3.8,22.2,3.2     C396.4,172,395,181.9,388,187.1z" fill="#69BD45"/><g><path d="M384.2,180.7c-17.7,13.3-35.4,26.5-53.1,39.8c1.3-0.3,2.5-0.7,3.8-1c-14.1,0-28.2,0-42.3,0c2.5,2.5,5,5,7.5,7.5      c0.3-6.8,9.2-11.2,14.8-15.3c10.2-7.7,20.5-15.4,30.7-23.1c8.2-6.2,16.4-12.3,24.6-18.5c2.6-2,5-4,8.6-4      c3.4-0.1,6.4,2.5,7.6,5.6c1.5,4.1-0.6,7.6-3.7,10.1c-3.2,2.6-2.7,7.9,0,10.6c3.1,3.1,7.4,2.6,10.6,0c9.3-7.6,11.1-21.4,4.3-31.3      c-7.1-10.3-20.7-12.6-31.3-6.6c-7.8,4.4-15,11.2-22.2,16.6c-12.3,9.2-24.5,18.4-36.8,27.6c-10.1,7.6-21.5,14-22.2,28.3      c-0.2,4.1,3.6,7.5,7.5,7.5c9.9,0,19.9,0,29.8,0c4.1,0,8.2,0,12.3,0c3.3,0,5.5-2.2,8-4.1c16.3-12.3,32.7-24.5,49-36.8      c3.3-2.4,4.9-6.4,2.7-10.3C392.6,180.1,387.5,178.2,384.2,180.7z"/></g></g><g><g><path d="M308.5,342C308.5,342,308.5,342,308.5,342c-4.1,0-7.5,3.4-7.5,7.5s3.4,7.5,7.5,7.5c0,0,0,0,0,0c4.1,0,7.5-3.4,7.5-7.5      S312.6,342,308.5,342L308.5,342z"/></g></g><g><path d="M203.8,349.5v70H76.1c-7,0-12.7-5.7-12.7-12.7v-44.6c0-7,5.7-12.7,12.7-12.7H203.8z" fill="#C1272D"/><g><path d="M196.3,349.5c0,23.3,0,46.7,0,70c2.5-2.5,5-5,7.5-7.5c-22.6,0-45.2,0-67.8,0c-14.7,0-29.5,0-44.2,0      c-5.5,0-18.9,2.6-20.8-4.5c-1.1-4,0-9.7,0-13.8c0-7.9,0-15.8,0-23.6c0-3.7-1.3-11,3.2-12.7c2.1-0.8,4.9-0.4,7.1-0.4      c28.3,0,56.6,0,85,0c12.5,0,25.1,0,37.6,0c9.7,0,9.7-15,0-15c-22.6,0-45.2,0-67.8,0c-14.7,0-29.5,0-44.2,0      c-8.7,0-19.4-1.5-26.9,3.5C57.6,350.2,56,358,56,366c0,7.3,0,14.7,0,22c0,6,0,12.1,0,18.1c0,10.6,7.8,20.2,18.8,20.8      c7.3,0.4,14.7,0.1,22.1,0.1c15.4,0,30.7,0,46.1,0c20.3,0,40.5,0,60.8,0c4.1,0,7.5-3.4,7.5-7.5c0-23.3,0-46.7,0-70      C211.3,339.8,196.3,339.8,196.3,349.5z"/></g></g><g><path d="M448.5,362.2v44.6c0,7-5.7,12.7-12.7,12.7H308.5v-70h127.3C442.9,349.5,448.5,355.2,448.5,362.2z" fill="#C1272D"/><g><path d="M441,362.2c0,12.5,0,25,0,37.5c0,4.6,1.3,10.8-4.5,12.3c-1.8,0.5-4.4,0-6.2,0c-28.4,0-56.8,0-85.3,0      c-12.2,0-24.4,0-36.6,0c2.5,2.5,5,5,7.5,7.5c0-23.3,0-46.7,0-70c-2.5,2.5-5,5-7.5,7.5c22.5,0,45.1,0,67.6,0      c14.7,0,29.4,0,44.1,0c5.5,0,18.8-2.6,20.8,4.5C441,361.7,441,361.9,441,362.2c0.5,9.6,15.5,9.7,15,0      c-0.6-11.1-8.9-20.2-20.3-20.2c-2.6,0-5.1,0-7.7,0c-13,0-26.1,0-39.1,0c-26.2,0-52.5,0-78.7,0c-0.6,0-1.1,0-1.7,0      c-4.1,0-7.5,3.4-7.5,7.5c0,23.3,0,46.7,0,70c0,4.1,3.4,7.5,7.5,7.5c22.5,0,45.1,0,67.6,0c14.7,0,29.4,0,44.1,0      c8.7,0,19.3,1.5,26.9-3.5c11-7.3,8.9-21.3,8.9-32.6c0-9.6,0-19.2,0-28.7C456,352.5,441,352.5,441,362.2z"/></g></g><g><path d="M308.5,327.2v92.3H203.8v-92.3c0-7,5.7-12.7,12.7-12.7h79.4C302.8,314.5,308.5,320.2,308.5,327.2z" fill="#FBB03B"/><g><path d="M301,327.2c0,30.8,0,61.6,0,92.3c2.5-2.5,5-5,7.5-7.5c-34.9,0-69.8,0-104.8,0c2.5,2.5,5,5,7.5,7.5c0-24.9,0-49.7,0-74.6      c0-5,0-10.1,0-15.1c0-3.6,0.5-7.8,5.2-7.8c10.6,0,21.2,0,31.7,0c11.7,0,23.5,0,35.2,0C288.3,322,300.6,319.7,301,327.2      c0.5,9.6,15.5,9.7,15,0c-0.6-11.1-8.9-20.2-20.4-20.2c-3.8,0-7.6,0-11.4,0c-15.4,0-30.8,0-46.3,0c-10.5,0-25.5-2.5-34.3,4.6      c-9.6,7.8-7.4,21.5-7.4,32.5c0,25.1,0,50.3,0,75.4c0,4.1,3.4,7.5,7.5,7.5c34.9,0,69.8,0,104.8,0c4.1,0,7.5-3.4,7.5-7.5      c0-30.8,0-61.6,0-92.3C316,317.5,301,317.5,301,327.2z"/></g></g><g><path d="M166.8,279.5c0,8.8-7.1,15.8-15.8,15.8h-17.5c-8.8,0-15.8-7.1-15.8-15.8s7.1-15.8,15.8-15.8H151     C159.7,263.6,166.8,270.7,166.8,279.5z" fill="#FAED23"/><g><path d="M159.3,279.5c-0.4,9.4-9.9,8.3-16.6,8.3c-6.9,0-17.2,1.4-17.6-8.3c-0.4-9.4,10.5-8.3,16.6-8.3      C148.6,271.1,158.9,269.7,159.3,279.5c0.4,9.6,15.4,9.7,15,0c-0.4-9.7-5.8-18.1-14.9-21.7c-5.3-2.1-11.1-1.6-16.7-1.6      c-5.5,0-11.2-0.5-16.5,1.2c-9.8,3-15.7,12.3-16.1,22.2c-0.4,9.5,6.3,18.3,14.9,21.7c5.3,2.1,11.1,1.6,16.7,1.6      c5.5,0,11.2,0.5,16.5-1.2c9.8-3,15.7-12.3,16.1-22.2C174.7,269.8,159.7,269.9,159.3,279.5z"/></g></g><g><path d="M394.4,279.5c0,8.8-7.1,15.8-15.8,15.8H361c-8.8,0-15.9-7.1-15.9-15.8s7.1-15.8,15.9-15.8h17.5     C387.3,263.6,394.4,270.7,394.4,279.5z" fill="#FAED23"/><g><path d="M386.9,279.5c-0.4,9.4-9.9,8.3-16.6,8.3c-6.9,0-17.2,1.4-17.6-8.3c-0.4-9.4,10.5-8.3,16.6-8.3      C376.1,271.1,386.4,269.8,386.9,279.5c0.4,9.6,15.4,9.7,15,0c-0.4-9.7-5.8-18.1-14.9-21.7c-5.3-2.1-11.1-1.6-16.7-1.6      c-5.5,0-11.2-0.5-16.5,1.2c-9.8,3-15.7,12.3-16.1,22.2c-0.4,9.5,6.3,18.3,14.9,21.7c5.3,2.1,11.1,1.6,16.7,1.6      c5.5,0,11.2,0.5,16.5-1.2c9.8-3,15.7-12.3,16.1-22.2C402.3,269.8,387.3,269.9,386.9,279.5z"/></g></g><g><rect fill="#544741" height="105" width="31.7" x="240.2" y="122"/><g><path d="M264.3,122c0,35,0,70,0,105c2.5-2.5,5-5,7.5-7.5c-10.6,0-21.1,0-31.7,0c2.5,2.5,5,5,7.5,7.5c0-35,0-70,0-105      c-2.5,2.5-5,5-7.5,7.5c10.6,0,21.1,0,31.7,0c9.7,0,9.7-15,0-15c-10.6,0-21.1,0-31.7,0c-4.1,0-7.5,3.4-7.5,7.5c0,35,0,70,0,105      c0,4.1,3.4,7.5,7.5,7.5c10.6,0,21.1,0,31.7,0c4.1,0,7.5-3.4,7.5-7.5c0-35,0-70,0-105C279.3,112.3,264.3,112.3,264.3,122z"/></g></g></g><g><path d="M284.5,34.4L284.5,34.4l-56.7,0.1v-0.1c0-13.7,12.7-24.9,28.3-24.9C271.8,9.5,284.5,20.6,284.5,34.4z" fill="#FAED23"/><g><path d="M277,34.4C277,34.4,277,34.4,277,34.4c2.5-2.4,5-4.9,7.5-7.4c-18.9,0-37.8,0-56.7,0c2.5,2.5,5,5,7.5,7.5     C235.3,11.5,276.3,11.5,277,34.4c0.3,9.7,15.3,9.7,15,0C291.4,15.1,274.5,2.4,256.1,2c-18-0.4-35.8,13.7-35.8,32.4     c0,4.1,3.4,7.5,7.5,7.5c18.9,0,37.8,0,56.7,0c4.1,0,7.5-3.4,7.5-7.5c0,0,0-0.1,0-0.1C292,24.7,277,24.7,277,34.4z"/></g></g></g></svg>